<svg width="47" height="33" viewBox="0 0 47 33" fill="none" xmlns="http://www.w3.org/2000/svg">
<path d="M0 13.7729V19.455C0 21.6641 1.79086 23.455 4 23.455H6.57551C7.46913 23.455 8.33701 23.7542 9.04074 24.3049L16.126 29.8499C18.7517 31.9048 22.5912 30.0341 22.5912 26.6999V6.35082C22.5912 2.99187 18.7015 1.12872 16.0842 3.23397L9.05262 8.8898C8.34205 9.46135 7.4575 9.77294 6.54559 9.77294H4C1.79086 9.77294 0 11.5638 0 13.7729Z" fill="#AB9988"/>
<path d="M29.5 8.5002C33.574 14.5677 33.3445 18.0608 29.5 24.4095M34.5 5.63652C39.8693 14.3543 39.7509 19.1531 34.5 27.5914M40 2.13647C47.2634 14.4672 46.9149 20.6876 40 30.7732" stroke="#AB9988" stroke-width="3" stroke-linecap="round" stroke-linejoin="round"/>
</svg>
