<svg id="Layer_1" data-name="Layer 1" xmlns="http://www.w3.org/2000/svg" viewBox="0 0 23.67 31.62"><path d="M240.17,248.67a55.49,55.49,0,0,0,1.21,11.49,48.29,48.29,0,0,0,1.26,4.76,14.27,14.27,0,0,1,.88,4.83h3c0-1.11-.23-2.21-.21-3.32s.56-1.58,1.31-2.35c1.24-1.3,2.06-3.16,3.59-4.16.58-.37.9-.33,1.33.23a7.67,7.67,0,0,1,1.14,2.46,24.33,24.33,0,0,1,1.15,7.39c0,1.93,3,1.93,3,0a26.21,26.21,0,0,0-1.58-9.12c-.9-2.31-2.69-5-5.57-4-2.39.82-3.46,3.26-5.07,5-1.07,1.14-2,2.08-2.23,3.7a24.74,24.74,0,0,0,.14,4.21,1.5,1.5,0,0,0,3,0c.18-3.29-1.4-6.43-2.08-9.59a52.34,52.34,0,0,1-1.27-11.49,1.5,1.5,0,0,0-3,0Z" transform="translate(-240.17 -239.83)"/><path d="M260.83,257.33v7.34a1.5,1.5,0,0,0,3,0v-7.34a1.5,1.5,0,0,0-3,0Z" transform="translate(-240.17 -239.83)"/><path d="M260.33,242.83a1.5,1.5,0,0,0,0-3,1.5,1.5,0,0,0,0,3Z" transform="translate(-240.17 -239.83)"/></svg>